<svg xmlns="http://www.w3.org/2000/svg" viewBox="0 0 54.38 63.59"><title>horse-logo2.1</title><g id="fb419dfd-419e-44fb-b983-875db889e679" data-name="Layer 2"><path d="M323.82,439.48H311.06v7.67h12.76l-1.46-3.83,1.46-3.84Zm-51.37,0h12.77v7.67H272.45l1.47-3.83Z" transform="translate(-270.95 -389.76)" style="fill:#076c8a;fill-rule:evenodd"/></g><g id="fb88662d-389a-4e21-a12e-4ffa551ee307" data-name="Layer 3"><rect x="5.37" y="50.51" width="43.64" height="10.55" style="fill:#076c8a"/></g><g id="e6ca6e5b-59f3-4576-87ba-73e59b9d22d6" data-name="Layer 4"><path d="M291.45,448a51.65,51.65,0,0,1-13.69-17.54,63.88,63.88,0,0,1-6.15-23l-.66-8.3,27.19-9.4,27.19,9.4-.66,8.3a63.9,63.9,0,0,1-6.16,23A51.53,51.53,0,0,1,304.82,448l-6.68,5.4Z" transform="translate(-270.95 -389.76)" style="fill:#076c8a;fill-rule:evenodd"/></g><g id="e5d70ff2-f39a-4cc5-9667-e84fc2d3a1b5" data-name="Layer 5"><rect x="6.73" y="51.87" width="40.91" height="7.82" style="fill:#bfbfbf"/></g><g id="f16c1572-70b9-4391-a0db-3b87be9125fc" data-name="Layer 6"><path d="M292.35,446.83a50.22,50.22,0,0,1-13.3-17.05,62.34,62.34,0,0,1-6-22.44l-.57-7.19,25.67-8.87,25.67,8.87-.57,7.19a62.56,62.56,0,0,1-6,22.44,50.09,50.09,0,0,1-13.3,17.05l-5.78,4.67Z" transform="translate(-270.95 -389.76)" style="fill:#bfbfbf;fill-rule:evenodd"/></g><g id="bc14b3b5-f8d2-418c-9a9b-f084d3803622" data-name="Layer 7"><path d="M293.26,445.71a48.71,48.71,0,0,1-12.92-16.56,61,61,0,0,1-5.87-21.92l-.48-6.08,24.15-8.35,24.15,8.35-.48,6.08a61,61,0,0,1-5.88,21.92A48.56,48.56,0,0,1,303,445.71l-4.88,4Z" transform="translate(-270.95 -389.76)" style="fill:#076c8a;fill-rule:evenodd"/></g><g id="ff00d45a-7bc2-4fdd-8fe4-cc6f0d493002" data-name="Layer 8"><path d="M307.31,422l.35,0c.82-.06,1.89,0,2.1.7a2.54,2.54,0,0,0-1.61-.27c0,.28-.38.65-.78.88l-.06,0v4.78c1.27-1.6,3.06-2.58,3.3-4.93.36,1.43-.68,3.11-2,4.32,0,.78.11,1.95,1.14,2.16-1.47-1.82,3.08-4.55,3.41-7.41,0,0,0-.08,0-.11v-.5c-.21-2.07-3.26-1.06-5.88-.72V422Zm0,9.85V429q.19-.3.42-.6a9.27,9.27,0,0,0,.11,4.28A4.29,4.29,0,0,1,307.31,431.82Zm-8.84-2.06a1.42,1.42,0,0,0,.43-.62,1.6,1.6,0,0,1-.1.83,3.8,3.8,0,0,0,1.65-1.5,2.67,2.67,0,0,1-.5,1.34c.67.45,1.43.79,2.1,1.23-.18,1.44.23,3.4-.3,4.84a18.77,18.77,0,0,1-2,2.33c-.54.57-.76,3.42-.49,4.22a37.71,37.71,0,0,0,3.66-3.27c0-.55-.43-1-.28-1.52s.34-.92.87-1.16c0-1.82-.31-4.31.47-6.47a7,7,0,0,1-1.18-3.37,6.68,6.68,0,0,0,1.59-4.67c.86.57,2,.16,2.95,0v-1.11c-1.6.21-3,.17-3.55-1-1.13-3.48-3.72-2.82-5.25-5.59l0-.06v15.54Zm8.84-6.49v4.78a5.85,5.85,0,0,0-.95,1.66,8,8,0,0,0,0,4.74c-4.42-7.91-.89-10.11,1-11.18Zm-8.84-9.82c.29-.52,1.12-.93,1.29-1.85a4.1,4.1,0,0,1-1.29.91v.94Zm0-1.61V410a5,5,0,0,0,2.78-3.15,8.82,8.82,0,0,1-2.78,2.55V407a3.59,3.59,0,0,0,1.35-2.77,7.79,7.79,0,0,1-.16,3.06l0,.09a4.27,4.27,0,0,0,.77-3.23,4,4,0,0,0-1.94-3V399a2.84,2.84,0,0,1,2.61.4,1.09,1.09,0,0,0-.82,1.21,2.11,2.11,0,0,1,2.58,1.53,2.74,2.74,0,0,0-2,.19,3.87,3.87,0,0,1,3.12,1.37,4.28,4.28,0,0,0-2.47.12,2.75,2.75,0,0,1,2.28,1.2,2.57,2.57,0,0,1-.41,1.1,1.42,1.42,0,0,0-1-.44,1.93,1.93,0,0,1,.36,2.2,5,5,0,0,1-1,1.31,14.51,14.51,0,0,1-3.32,2.63ZM307.31,429v2.8a7.09,7.09,0,0,1-.52-1.75,5.12,5.12,0,0,1,.52-1.05Zm-8.84,4.57v-3a3.33,3.33,0,0,0,1.16-.23l0,0a2.67,2.67,0,0,0,1,2.31,1.42,1.42,0,0,1-1.17-.31,2.8,2.8,0,0,0,.8,2.5c-.92,0-1.4-.71-1.58-1.54l-.28.22Zm0-27.33a3,3,0,0,0,.61-3.1,2.86,2.86,0,0,0-.61-1.16v4.26Zm0-7.79v-.12a1.86,1.86,0,0,1,.33,0Zm-1.21,31.67a1.66,1.66,0,0,0,1.21-.38V414.22a.78.78,0,0,1,0-.77v-.94a8,8,0,0,1-3.3.78v8.65c.4.18.78.36,1.12.54,0,.19,0,.37.07.55a3.42,3.42,0,0,0,1.24.42,3.64,3.64,0,0,0-.22-2,2.17,2.17,0,0,1,.85,2.1c0,.71,0,1.43,0,2.15a11.41,11.41,0,0,1-.05,2.74,3.89,3.89,0,0,1-.93,1.74Zm-2.09-17.82v-4.09a8.27,8.27,0,0,0,2.32-.61,4.4,4.4,0,0,0,1-.59v2.4a11.21,11.21,0,0,1-2.78,1.15,5.64,5.64,0,0,0,2.78-.55v1.81a8,8,0,0,1-3.3.93h0a1.93,1.93,0,0,0,.53-.88,3.16,3.16,0,0,1-.53.44Zm3.3-13.3a2.75,2.75,0,0,0-1.44,1.64,4.44,4.44,0,0,1,1.44.5V399Zm0-.67v.12a2.72,2.72,0,0,0-1.87,1.76c-.4-.48-.68-.68-1.08-1.16a9.64,9.64,0,0,1,3-.72Zm0,3.65a2.82,2.82,0,0,0-2.1-.86,3.26,3.26,0,0,0-1.2-1.65v5.38a1.84,1.84,0,0,0,.28-.48,1.86,1.86,0,0,1-.28,1v2.33a6.81,6.81,0,0,0,2.17-.64,4,4,0,0,0,1.13-.8V402Zm0,28.62v3a3.31,3.31,0,0,0-.85,3.7c-1.47-1.19-.93-2.9,0-4-.82-.07-1.73-.24-2.44-.25v-1.32a3.8,3.8,0,0,0,2.48-1l.05-.08c.13,0,.42,0,.77,0Zm-3.3-1.36v-.19l.05.09-.05.1Zm0-.7v-5.92l.52.27,0,.21,0,.3.26.16a5.55,5.55,0,0,0,1.55.52c0,.56,0,1.07,0,1.57a9.83,9.83,0,0,1,0,2.6,3,3,0,0,1-.64,1.27l-.15.14A8.05,8.05,0,0,1,295.17,428.56Zm0-15.27a3.61,3.61,0,0,1-1.45-.26,4.44,4.44,0,0,0,1.45-.71v-4.09a13.24,13.24,0,0,1-1.78.06v9.22c.5-.23.85-.38.88-.32a4.37,4.37,0,0,1-.88.68v3.22c.58.31,1.2.59,1.78.85v-8.65Zm0-.53h0v0Zm0-13.27v5.38a1.64,1.64,0,0,1-1.78.62V402a2.46,2.46,0,0,0,.66-.68,2.27,2.27,0,0,0-.66,0v-.83c.22-.06.47-.13.79-.19a2.17,2.17,0,0,0,0-1.13,2.58,2.58,0,0,1,1,.41Zm0,5.88a3.94,3.94,0,0,1-.82,1,4.47,4.47,0,0,1-.4.34,2.71,2.71,0,0,1-.56-.05v1.09a8.83,8.83,0,0,0,1.78,0v-2.33Zm0,17.27v5.92a4.37,4.37,0,0,1-.48-.46,9.52,9.52,0,0,0,.48,1v.19a2,2,0,0,1-1.78,1.26v-.28A3.73,3.73,0,0,0,294,429a3.58,3.58,0,0,1-.61.68v-2c.6-1.75.23-3.56,1.47-5.18a3.06,3.06,0,0,1,.31.15Zm0,9.13v1.32h-.3c-1.15.07-1.05.84-1.29,1.4a.58.58,0,0,0-.19,0V432C294,431.92,294.6,431.86,295.17,431.77Zm-1.78-23.48a18.24,18.24,0,0,1-1.84-.16,22.93,22.93,0,0,0-5.2-.43v.49a53,53,0,0,1,5.38.7,5.34,5.34,0,0,0-1.67,2.56,8.22,8.22,0,0,1,1.85-.7,2.51,2.51,0,0,1,1-.88c-.23.35-.69.8-.74,1.17-4,1.24-2.72,4.12-3.63,5.11-.38.42-1.25.4-2.22.39v2c1.65.42,2.82,1.46,3.3,4.06a2.32,2.32,0,0,0,.36-2.71,2.94,2.94,0,0,1,.87,1.5c.51-.68,0-1.62-.77-2.48a25.54,25.54,0,0,0,3.28-1.39v-9.22Zm0,9.58v3.22a5.66,5.66,0,0,1-2.31-1.92,13,13,0,0,0,2.31-1.3Zm0-17.47v.83l-.67.07a1,1,0,0,0,.37.78.76.76,0,0,0,.3-.12v3.53a2.33,2.33,0,0,1-1.3-.87c-.43-.16-.94-.32-1.51-.5a2.25,2.25,0,0,1-1.68,1.62,1.82,1.82,0,0,1-.64-1.12c2.59.32.88-2.63-.53-.89a1.79,1.79,0,0,1-1.15-.5,5.52,5.52,0,0,1,1.46-1.8l.52.28a30.42,30.42,0,0,0,3.85-.58c.07-.14.13-.29.19-.43a4.13,4.13,0,0,1,.79-.3Zm0,6.25v1.09a16.19,16.19,0,0,1-1.84-.21c-1.18-.18-2.6-.44-4-.55a5.32,5.32,0,0,1,3.81-.34,1.55,1.55,0,0,1-.47-1.47c.12.68,1.41,1.31,2.48,1.48Zm0,21v2a2.07,2.07,0,0,1-1.95.54,5.21,5.21,0,0,0,1.95-2.56Zm0,2.57a2.37,2.37,0,0,1-.28.27h.28v-.28Zm0,1.8v2.48c-.62.19-.9,1.15-1,1.4-.53.31-2.12-.24-2.74-.74-.16-1,1.37-2.18,2.34-2.71a7.07,7.07,0,0,1,1.4-.43Zm-7-20v-2.19c.58-.21,1.14-.19,1.28.08.39.66,1.49,1,2.18,1.66-1.07.84-1.41,3-1.44,3.69-.75-.67-1.37-3.07-1.56-3.32A3.44,3.44,0,0,0,286.35,412.06Zm0-4.36a1.62,1.62,0,0,0-1.29.67,4.57,4.57,0,0,1,1.29-.18v-.49Zm0,8.84a9.07,9.07,0,0,0-1.89.11c-.2,1.43-1.28,3.15-1.56,6.27.07,0,.56,1.13,1.05,2.15a2.79,2.79,0,0,0,1.82.34,4.39,4.39,0,0,0-.38-2.46c-.82-.39-1.3-.39-1-1.07a5.7,5.7,0,0,1,1.47-3.46l.51.11v-2Zm0-6.67v2.19a6.13,6.13,0,0,0-3.17,1.75c-.21.3,0,1.13-.06,1.39-.6.39.1,1,.14,1.27-.47.75-1.3,2.08-1.82,2.14-.53-1.58-.88-3.94-.43-4.47,1-1.24,4.23-3.3,4.73-3.95A2.55,2.55,0,0,1,286.35,409.87Z" transform="translate(-270.95 -389.76)" style="fill:#fff;fill-rule:evenodd"/></g><g id="b2677a4c-3ee7-47eb-9efc-2620000a10b4" data-name="Layer 9"><path d="M279.41,404.68c1.24.11,2-.64,3.37-1.21,2.19-.9,2.73,1.94,5.52.34-1.4,2.69-2.84,1.13-4.72.76C282,404.27,279.85,405.77,279.41,404.68Z" transform="translate(-270.95 -389.76)" style="fill:#bfbfbf;fill-rule:evenodd"/></g><g id="fb65c705-3066-46c6-ac1f-a843f74431af" data-name="Layer 10"><path d="M312,415.59a4.6,4.6,0,0,0,3.35-1.33l-3.35-2v3.35Zm0-4.61.67.45a2.14,2.14,0,0,0,2,.29,2.41,2.41,0,0,0,1.59-1.45c.12-.45.24-.9.35-1.36l-4.61-.29V411Zm0-3.33a14.3,14.3,0,0,1,2.63,0c2,.08,2.55-1.7,2.54-3.09L312,402.75v2.43a9.93,9.93,0,0,0,3.81,0,6.71,6.71,0,0,1-3.81.51v1.94Zm0,12v-3.11a1.45,1.45,0,0,1,.39,1.11,7,7,0,0,0,2.85-2.13,2.67,2.67,0,0,1-2,3c.85.29,1,1.5.72,2.51l-.07-.08A2,2,0,0,0,312,419.62Zm-3.06-2.15a3.7,3.7,0,0,0,1.56,0l-1.56-2.88v2.91Zm0-5v-4.33a5.15,5.15,0,0,0,1.13-2.88,5.17,5.17,0,0,0,1.93.45v1.94a1.74,1.74,0,0,0-1.42.88l1.42.09V411c-1.11-.71-2.18-1.13-2.92-.49l2.92,1.75v3.35a2.44,2.44,0,0,1-.62-.1,2.09,2.09,0,0,1-1.36-1.14,13.43,13.43,0,0,0-1.08-1.88Zm3.06-9.72-2.69-.92-.37-.09v5a5.81,5.81,0,0,0,.54-2.45,8.23,8.23,0,0,0,2.52.86v-2.43Zm0,13.76v3.11a11.26,11.26,0,0,0-3.06.22v-.24c1-1.16,3-1.2,3-3.13l.05,0Zm-3.06,2,.22-.14-.22-.07Zm-3.55-.7h.24l-.24-1.75v1.75Zm0-5.36v-1.71a8.59,8.59,0,0,0,3.55-2.58v4.33c-.51-.69-1.05-1.1-1.6-.85l1.6,2.94v2.91a3.08,3.08,0,0,1-2.71-2.63c-.09-1.06-.29-2.1-.84-2.41Zm3.55-10.69a2.3,2.3,0,0,0-1.33.21c-1.88.85-1.21,3.45-2.22,5.48v2.72a7.06,7.06,0,0,0,3.55-3.38v-5Zm0,16.54v.21c-.94.65-1.61,1.83-3.32,1.75l-.23,0v-1.54c1.23,0,2.26-.79,3.55-.4Zm0,1.32a1.51,1.51,0,0,0-.22.28l.22,0v-.24Zm-3.55-14v-4.73a2.17,2.17,0,0,1,1.21.16l.9.29-.19.09C305.62,402.22,305.69,403.92,305.36,405.56ZM304,417.29a2.69,2.69,0,0,0,1.39.5V416l-.48-3.7a.76.76,0,0,1,.48.09v-1.71a9.43,9.43,0,0,1-1.39.46v6.11Zm1.39-9.86A3.88,3.88,0,0,1,304,409v1.64a8.78,8.78,0,0,0,1.39-.49v-2.72Zm0-6.6v4.73a4.27,4.27,0,0,1-1.39,2.62v-1.55a4.48,4.48,0,0,0,.66-1.64c.21-1-.07-2.07.07-3.12.09-.64.33-.94.66-1Zm0,17.85v1.54c-.67-.11-.84-.53-1.08-1.13a5.43,5.43,0,0,0-.31-.64v-.12a2.75,2.75,0,0,0,1.39.35ZM304,437.8v-.15c.67-1.32.46-3.17.42-5.07.63.79,2,2.86-.42,5.22Zm0-35.07.07.15c-.11-1.07,0-2.25.64-2.48a.7.7,0,0,0-.71-.31ZM302.9,415.9a3.13,3.13,0,0,0,1.07,1.39v-6.11a7.76,7.76,0,0,1-1.07.2v4.52ZM304,409a5.08,5.08,0,0,1-1.07.53v1.3a9.58,9.58,0,0,0,1.07-.19V409Zm0-8.91v2.64a7.15,7.15,0,0,0-1.07-1.87v-.94a2.49,2.49,0,0,1,.68.37.64.64,0,0,1,.39-.2Zm0,6.54v1.55l-.26.21q-.22.15-.45.27a3.41,3.41,0,0,0,.55-1.8l.16-.23Zm0,11.7v.12a1.74,1.74,0,0,0-.11-.18l.11.06Zm0,19.32v.15a1.8,1.8,0,0,1-.2.19A2.33,2.33,0,0,0,304,437.65Zm-4.46-24.12a.53.53,0,0,0-.1.25c-.09.65,1.3,2,2.72,2.51-.71-1.31-.24-3.21-.18-4,.69.12.9.84.74,1.67a3.24,3.24,0,0,0,.21,1.91v-4.52a8.55,8.55,0,0,1-2.37,0l0,.27c-.07,1-.53,1.18-1,1.88Zm3.39-4-.5.16a14.33,14.33,0,0,1-1.36,1.17c.27,0,.54,0,.82,0a8.94,8.94,0,0,0,1-.06v-1.3Zm0-9.61v.94a2.62,2.62,0,0,0-1.79-.8c.23-.39,1.06-.42,1.79-.14ZM298,442.65v-.3a3.23,3.23,0,0,0,.4.35,2.57,2.57,0,0,1-.4-.05Zm0-2V440a1.94,1.94,0,0,0,.42,0,1.26,1.26,0,0,1-.42.63Zm0-2.05v-.32c.6-1.07-.17-2.15.45-3.5C299.89,435.64,300,437.51,298,438.62Zm0-.32v.32a4.09,4.09,0,0,1-.42.2,2.13,2.13,0,0,0,.42-.52Zm0,1.72a2.6,2.6,0,0,1-2-2.39c-.26-1.73-.1-3.34.68-3.91-2.69-.15-1,4-2.6,5.13v.82a.85.85,0,0,0,1.4-.43c.45,1.42,1,3.11,2.54,3.41v-.3a5.48,5.48,0,0,1-.9-1.28,1.62,1.62,0,0,0,.9-.4V440Zm-3.94-3.22v-1.94a2.32,2.32,0,0,1,.45-.43A9.56,9.56,0,0,0,294.08,436.8Zm0-1.94v1.94c-.22,1.4-.66,2.45-2.36.33,1.57.05,1.56-1.29,2.36-2.27Zm0,4a1.35,1.35,0,0,1-.45.22,1.55,1.55,0,0,0,.45.6v-.82Zm-4.31-5.65v-1.89a6.73,6.73,0,0,1,3.21.05,7,7,0,0,0-1.3.42l0,0h0a8.11,8.11,0,0,0-1.86,1.39Zm0-2.63V429.3a13,13,0,0,0,3-1.93,6.52,6.52,0,0,1-3,3.2Zm0-2.09c2.49-1,4.55-3.45,2.26-6.45a3.13,3.13,0,0,1-2.26,3.14v3.31Zm0-4.34v-.35a1.83,1.83,0,0,0,.45.14A3,3,0,0,1,289.77,424.14Zm0-.35v.35c-2.4,1-2.56-2-4.09-2.34,1.12-.32,1.35-1.16.51-2.4,2.76.75,1.8,3.58,3.58,4.39Zm0,1.38a2.77,2.77,0,0,1-3.06-.66,5.9,5.9,0,0,1,.11,1.52c-.68,0-1.27.07-1.94.07a2.92,2.92,0,0,0,2.91,1.18,2.81,2.81,0,0,0-1.59,1.51,5.39,5.39,0,0,0,3.57-.31v-3.31Zm0,4.13v1.27c-1.22.61-2.47.6-3-.89a5.57,5.57,0,0,0,3-.38Zm0,2v1.89a3.72,3.72,0,0,0-.64.88c-1.06-1.57-.5-2.43.64-2.77Zm-7.31-19.58v-1.58a4.83,4.83,0,0,0,.28-.74,2.27,2.27,0,0,1,1.73-1.51,2.88,2.88,0,0,0-.32,1.53,5.06,5.06,0,0,1,1.69-.46c-1.15.69-2.21,2-3.38,2.76Zm0-3.44a3.24,3.24,0,0,1,1.8-1.13c1.29-.35,2,0,3.23-1-1.92-.1-3.78.1-5,1.15v1Zm0-1.91V405.3a3.51,3.51,0,0,1,2.15.3,4.7,4.7,0,0,0-2.15.78Zm4.76,8.77c-.72-3.26-3.59-1.37-3.11.6a5.26,5.26,0,0,1,1.1-.13C285.06,414.18,286.6,413.87,287.22,415.15Zm-4.76-9.85v1.08a4.77,4.77,0,0,0-1.83,2.29,12.65,12.65,0,0,1-.71,1.84,5.77,5.77,0,0,1,.36-3.5,2,2,0,0,1-1-1.29c.93.47,1.95-.21,3.2-.42Zm0,2a4,4,0,0,0-1.13,1.63c-.33.87-.56,1.91-1,2.22.9,0,1.48-1.2,1.7-2a3.1,3.1,0,0,1,.45-.91v-1Zm0,2.84a4.13,4.13,0,0,1-.61,1,3.48,3.48,0,0,1-1.67,1.05,2.64,2.64,0,0,0,2.28-.45Z" transform="translate(-270.95 -389.76)" style="fill:#bfbfbf;fill-rule:evenodd"/></g><g id="ea7d4fb6-1744-42c7-ac89-057491aef98a" data-name="Layer 11"><path d="M287.4,408.94c.77.25,1.06.91,2.14,1.37a4,4,0,0,1,.48-.88C289.35,409.33,287.91,409,287.4,408.94Z" transform="translate(-270.95 -389.76)" style="fill:#fff;fill-rule:evenodd"/></g><g id="a27ed702-a52f-4168-983a-e13bc0eddba5" data-name="Layer 12"><rect x="8.1" y="53.24" width="38.18" height="5.09" style="fill:#076c8a"/></g><g id="b2142f08-097c-4ac4-a81c-4f3d78228903" data-name="Layer 13"><path d="M307.46,446.38V446h.35l-.34-.92v-1l.27,0,.28,0c.14.44.33.95.56,1.54l.54,1.28a2.16,2.16,0,0,0-.51,0,3.53,3.53,0,0,0-.51,0c-.05-.2-.11-.39-.17-.56h-.47Zm4.27-1.17-.09.21c-.07.17-.19.43-.34.77s-.19.46-.29.75l-.19,0-.2,0c-.08-.24-.2-.52-.35-.86l-.36-.84c0,.21-.09.49-.13.87s-.07.67-.08.84a.67.67,0,0,0-.24,0,1,1,0,0,0-.26,0c.06-.23.14-.63.25-1.2a13.93,13.93,0,0,0,.2-1.45v-.16a1.28,1.28,0,0,0,.36,0,1.32,1.32,0,0,0,.36,0,16.33,16.33,0,0,0,.71,1.68l.36-.84q.21-.5.33-.84a1.16,1.16,0,0,0,.35,0,1.19,1.19,0,0,0,.36,0l.05.51c0,.36.08.77.14,1.22a10.16,10.16,0,0,0,.19,1.08,3.28,3.28,0,0,0-.48,0,2.79,2.79,0,0,0-.47,0c0-.32-.05-.65-.09-1s-.06-.5-.1-.73Zm2.46.45v.89h.27l.72,0c0,.13,0,.2,0,.23a1.5,1.5,0,0,0,0,.2,8.69,8.69,0,0,0-.94,0,9,9,0,0,0-1,0c0-.24,0-.7,0-1.37s0-1,0-1.44c.33,0,.6,0,.82,0a9.17,9.17,0,0,0,1.09,0c0,.12,0,.19,0,.21s0,.1,0,.22l-.58,0h-.41v.77c.22,0,.54,0,1,0a.82.82,0,0,0,0,.21,1.11,1.11,0,0,0,0,.21Zm-6.73-1.51v1l-.34.9h.34v.34H307c0,.09-.09.28-.17.56a1,1,0,0,0-.27,0,.92.92,0,0,0-.26,0l.24-.52c.09-.19.28-.64.57-1.36.11-.26.22-.57.35-.92Zm-12.9,2.23V446h.35l-.34-.92v-1l.27,0,.28,0c.14.44.33.95.56,1.54l.54,1.28a2.16,2.16,0,0,0-.51,0,3.53,3.53,0,0,0-.51,0c-.05-.2-.11-.39-.17-.56h-.47Zm2.93-.52-.21-.24-.34-.36v.41c0,.25,0,.68.06,1.28a.71.71,0,0,0-.24,0,1,1,0,0,0-.26,0c.05-.52.07-1,.07-1.47s0-1,0-1.34a1.47,1.47,0,0,0,.33,0,1.13,1.13,0,0,0,.3,0,14.22,14.22,0,0,0,.93,1.08l.56.61c0-.09,0-.2,0-.34v-.34c0-.36,0-.7,0-1a1,1,0,0,0,.27,0,.59.59,0,0,0,.23,0c0,.13,0,.33,0,.6,0,.56,0,1.08,0,1.58,0,.14,0,.35,0,.63a1.12,1.12,0,0,0-.32,0,1.24,1.24,0,0,0-.3,0c-.11-.14-.43-.5-.94-1.09Zm3.66-.15c0,.14,0,.25,0,.33a8.92,8.92,0,0,0,.05.91,2.29,2.29,0,0,0-.47,0,3.28,3.28,0,0,0-.48,0c0-.36,0-.74,0-1.13a.84.84,0,0,0-.08-.21l-.42-.77-.39-.7a3.13,3.13,0,0,0,.56,0,2.13,2.13,0,0,0,.49,0,10.89,10.89,0,0,0,.53,1.15,11.19,11.19,0,0,0,.5-1.15,1.35,1.35,0,0,0,.26,0,.82.82,0,0,0,.28,0c-.2.32-.47.8-.81,1.46l-.05.11Zm3.3.15-.22-.24-.33-.36v.41c0,.25,0,.68.05,1.28a.66.66,0,0,0-.23,0,1.16,1.16,0,0,0-.27,0c.05-.52.08-1,.08-1.47s0-1,0-1.34a1.47,1.47,0,0,0,.33,0,1.24,1.24,0,0,0,.3,0,14.22,14.22,0,0,0,.93,1.08l.56.61c0-.09,0-.2,0-.34s0-.3,0-.34c0-.36,0-.7,0-1a1,1,0,0,0,.27,0,.66.66,0,0,0,.23,0c0,.13,0,.33,0,.6,0,.56,0,1.08,0,1.58,0,.14,0,.35,0,.63a1.15,1.15,0,0,0-.33,0,1.37,1.37,0,0,0-.3,0C305.27,446.81,305,446.45,304.45,445.86Zm-9.89-1.71v1l-.34.9h.34v.34h-.46c0,.09-.09.28-.17.56a1,1,0,0,0-.27,0h-.15v-.22l.13-.27c.09-.19.28-.64.57-1.36.1-.26.22-.56.35-.92Zm-1.05,1.21a.78.78,0,0,0,.12-.44.7.7,0,0,0-.12-.42Zm0-.86v.86a.63.63,0,0,1-.21.22,1.34,1.34,0,0,1-.75.18h-.11v-.32c.19-.05.29-.21.29-.49a.5.5,0,0,0-.13-.39.34.34,0,0,0-.16-.07v-.33h.14a1.46,1.46,0,0,1,.71.16.54.54,0,0,1,.22.2Zm0,2.2v.22l-.11,0Zm-1.07-2.55v.33h-.27c0,.27,0,.59,0,1h.28v.32h-.28a9,9,0,0,0,0,1.21l-.44,0a3.79,3.79,0,0,0-.53,0c0-.4.06-.83.06-1.31s0-1.11,0-1.5a2.62,2.62,0,0,0,.52,0l.41,0ZM285.39,447v-.32h0c.42,0,.63-.37.63-1.12s-.22-1.11-.66-1.11v-.32a1.7,1.7,0,0,1,1.13.36,1.31,1.31,0,0,1,.47,1.06,1.34,1.34,0,0,1-.47,1.09,1.7,1.7,0,0,1-1.13.36Zm4.33-1.77-.09.21c-.07.17-.19.43-.34.77s-.19.46-.29.75l-.19,0-.2,0c-.08-.24-.2-.52-.35-.86s-.24-.56-.37-.84c0,.21-.08.49-.12.87s-.07.67-.08.84a.67.67,0,0,0-.24,0,.92.92,0,0,0-.26,0c.06-.23.14-.63.25-1.2a13.93,13.93,0,0,0,.2-1.45v-.16a1.28,1.28,0,0,0,.36,0,1.37,1.37,0,0,0,.36,0,16.33,16.33,0,0,0,.71,1.68l.36-.84q.21-.5.33-.84a1.13,1.13,0,0,0,.34,0,1.22,1.22,0,0,0,.37,0l0,.51c0,.36.08.77.14,1.22s.13.88.18,1.08a3.06,3.06,0,0,0-.47,0,2.79,2.79,0,0,0-.47,0c0-.32-.05-.65-.09-1S289.76,445.44,289.72,445.21Zm-6.2-.32h-.16a.54.54,0,0,0-.2-.32.67.67,0,0,0-.38-.1.64.64,0,0,0-.59.32,1.31,1.31,0,0,0-.17.69c0,.75.24,1.13.75,1.13a.89.89,0,0,0,.45-.12,3.48,3.48,0,0,0,.3-.22l.12.06c-.05.17-.1.33-.13.46a2.6,2.6,0,0,1-.91.19,1.55,1.55,0,0,1-1.07-.37,1.46,1.46,0,0,1,0-2.12,1.72,1.72,0,0,1,1.14-.38,2.54,2.54,0,0,1,.94.19,2.07,2.07,0,0,0-.06.26,2.93,2.93,0,0,0-.06.33Zm1.87-.78v.32h0a.55.55,0,0,0-.53.36,1.71,1.71,0,0,0-.12.69,2.17,2.17,0,0,0,.1.77.57.57,0,0,0,.55.41V447h0a1.59,1.59,0,0,1-1.11-.38,1.3,1.3,0,0,1-.46-1.05,1.31,1.31,0,0,1,.46-1.07,1.63,1.63,0,0,1,1.12-.37Z" transform="translate(-270.95 -389.76)" style="fill:#fff"/></g></svg>